<?xml version="1.0" standalone="no"?>
<!DOCTYPE svg PUBLIC "-//W3C//DTD SVG 20010904//EN"
 "http://www.w3.org/TR/2001/REC-SVG-20010904/DTD/svg10.dtd">
<svg version="1.0" xmlns="http://www.w3.org/2000/svg"
 width="192.000000pt" height="192.000000pt" viewBox="0 0 192.000000 192.000000"
 preserveAspectRatio="xMidYMid meet">
<metadata>
Created by potrace 1.11, written by Peter Selinger 2001-2013
</metadata>
<g transform="translate(0.000000,192.000000) scale(0.100000,-0.100000)"
fill="#000000" stroke="none">
<path d="M0 960 l0 -960 496 0 c448 0 496 2 490 16 -3 9 -6 60 -6 115 l0 99
-32 0 c-50 0 -170 34 -242 68 -195 92 -345 257 -409 452 -14 41 -28 98 -32
127 l-7 52 -105 3 c-88 3 -108 6 -117 21 -8 12 -8 22 0 35 9 14 29 17 116 20
l105 3 7 68 c31 338 313 629 644 666 l62 7 0 72 c0 43 5 77 12 84 9 9 -98 12
-485 12 l-497 0 0 -960z"/>
<path d="M1040 1901 c5 -11 10 -49 10 -85 0 -60 2 -66 23 -70 167 -32 210 -48
308 -111 96 -62 151 -116 210 -203 55 -83 58 -109 16 -132 -28 -15 -29 -14
-60 24 -149 184 -277 262 -437 268 l-65 3 -3 -111 -3 -111 43 -12 c154 -47
279 -179 303 -322 l7 -39 92 0 c51 0 161 -3 245 -7 119 -5 154 -9 158 -21 3
-8 0 -18 -8 -23 -8 -5 -120 -9 -249 -9 l-235 0 -12 -61 c-16 -82 -53 -156
-108 -212 -49 -49 -171 -117 -211 -117 -24 0 -24 -1 -24 -115 0 -63 0 -118 0
-122 1 -10 60 -6 125 9 130 28 263 137 327 269 43 89 58 103 104 103 44 0 85
-38 86 -81 1 -43 -30 -89 -116 -171 -126 -120 -289 -200 -426 -209 -117 -8
-108 2 -112 -123 l-3 -110 448 0 447 0 0 960 0 960 -445 0 c-438 0 -446 0
-435 -19z"/>
<path d="M870 1571 c-242 -66 -427 -249 -487 -483 -10 -37 -15 -69 -12 -72 3
-3 134 -8 293 -12 l287 -7 -3 -31 -3 -31 -287 -3 -288 -2 0 -45 c0 -60 42
-187 85 -260 53 -87 97 -137 167 -191 96 -72 181 -106 321 -129 l37 -6 0 119
0 120 -54 6 c-108 14 -230 96 -277 188 -10 20 -19 39 -19 42 0 8 31 36 40 36
5 0 35 -25 65 -55 61 -61 118 -91 195 -101 l50 -7 0 109 c0 60 -3 207 -7 328
l-6 218 -44 -6 c-85 -11 -164 -72 -197 -151 -22 -53 -80 -60 -109 -13 -39 62
142 221 267 235 93 10 86 1 86 118 0 120 6 115 -100 86z m88 -453 c-2 -27 -8
-34 -28 -36 -29 -4 -51 -28 -43 -48 4 -10 -3 -14 -26 -14 -27 0 -31 4 -31 25
0 14 6 41 14 60 14 34 29 41 89 44 26 1 28 -2 25 -31z m-72 -230 c8 -26 16
-34 39 -38 32 -6 47 -37 24 -51 -18 -11 -71 0 -91 20 -9 9 -19 35 -23 59 -6
40 -5 42 18 42 19 0 26 -7 33 -32z"/>
<path d="M1040 975 l0 -315 25 10 c98 37 182 116 209 197 26 75 29 73 -94 73
l-110 0 0 30 0 30 110 0 110 0 0 30 c0 72 -93 200 -173 239 -82 40 -77 61 -77
-294z m113 166 c28 -11 34 -26 39 -86 3 -40 3 -40 -34 -43 -35 -3 -37 -2 -40
30 -2 28 -7 34 -30 36 -25 3 -28 8 -28 38 0 32 2 34 34 34 19 0 46 -4 59 -9z
m39 -265 c-5 -56 -23 -72 -90 -81 l-54 -7 4 28 c2 23 9 30 33 34 25 4 30 10
33 38 3 30 6 32 40 32 l37 0 -3 -44z"/>
</g>
</svg>
