<?xml version="1.0" standalone="no"?>
<!DOCTYPE svg PUBLIC "-//W3C//DTD SVG 20010904//EN"
 "http://www.w3.org/TR/2001/REC-SVG-20010904/DTD/svg10.dtd">
<svg version="1.0" xmlns="http://www.w3.org/2000/svg"
 width="1058.000000pt" height="1058.000000pt" viewBox="0 0 1058.000000 1058.000000"
 preserveAspectRatio="xMidYMid meet">
<metadata>
Created by potrace 1.11, written by Peter Selinger 2001-2013
</metadata>
<g transform="translate(0.000000,1058.000000) scale(0.100000,-0.100000)"
fill="#000000" stroke="none">
<path d="M5462 10569 c-49 -14 -116 -86 -129 -138 -7 -27 -11 -171 -10 -398 1
-195 -2 -357 -7 -360 -5 -3 -29 -7 -55 -8 -106 -6 -366 -35 -443 -51 -13 -2
-39 -6 -58 -9 -177 -23 -562 -137 -795 -235 -929 -391 -1752 -1214 -2139
-2140 -27 -63 -54 -128 -61 -145 -55 -130 -171 -534 -191 -665 -2 -14 -6 -36
-9 -50 -7 -30 -10 -47 -20 -120 -4 -30 -8 -57 -10 -60 -2 -3 -6 -37 -10 -75
-3 -39 -8 -77 -10 -85 -6 -24 -23 -242 -24 -323 l-1 -48 -503 4 c-370 3 -515
1 -550 -8 -168 -43 -223 -254 -99 -375 73 -70 73 -70 657 -66 l511 4 0 -21 c2
-97 39 -346 79 -527 22 -98 21 -96 38 -160 189 -706 557 -1351 1057 -1850 148
-148 208 -200 376 -330 437 -339 939 -598 1432 -739 128 -36 267 -72 337 -85
104 -20 344 -54 430 -62 44 -4 89 -8 100 -9 11 -1 25 -3 32 -4 8 -1 12 -50 13
-178 1 -98 3 -349 5 -558 1 -232 7 -390 13 -406 33 -82 147 -106 210 -43 38
38 41 72 42 425 2 666 4 742 22 745 9 1 68 5 130 8 62 4 149 9 193 12 77 5
104 7 245 20 312 28 723 142 1055 294 88 40 307 149 320 160 6 4 42 24 80 45
39 21 77 44 86 51 8 8 19 14 23 14 16 0 301 197 407 282 163 131 246 205 383
343 207 208 464 512 519 612 154 284 -18 635 -341 697 -68 13 -86 13 -172 1
-55 -8 -141 -47 -195 -89 -90 -69 -130 -129 -200 -302 -99 -244 -229 -480
-342 -624 -231 -293 -448 -489 -771 -693 -128 -82 -355 -195 -472 -236 -98
-34 -289 -89 -339 -97 -18 -3 -43 -8 -55 -10 -128 -29 -369 -56 -516 -58 l-45
-1 3 650 c2 358 6 653 10 657 4 3 27 9 52 13 81 11 98 15 212 45 62 17 120 32
130 34 9 3 30 12 47 20 16 9 35 16 41 16 25 0 264 118 377 187 583 351 955
953 1048 1692 9 75 16 106 25 115 9 9 93 11 1135 21 1371 12 1417 13 1456 31
44 19 70 61 71 115 0 49 -24 87 -73 111 -36 18 22 17 -1664 34 -970 9 -948 9
-951 32 -5 60 -26 184 -48 280 -21 91 -80 279 -102 321 -8 14 -14 30 -14 34 0
4 -22 54 -49 110 -298 616 -876 1070 -1563 1227 l-98 22 5 547 c2 300 4 577 5
615 l0 69 208 -6 c114 -3 224 -9 245 -12 41 -6 87 -12 162 -21 28 -4 53 -8 56
-10 4 -2 24 -6 45 -10 100 -16 318 -82 474 -144 183 -72 623 -336 784 -471
276 -228 446 -422 685 -776 103 -153 151 -190 253 -196 88 -6 164 27 222 95
73 85 80 191 21 309 -61 120 -242 415 -297 484 -4 5 -34 44 -65 85 -167 220
-402 462 -588 606 -22 17 -71 54 -108 83 -92 71 -356 243 -491 321 -91 52
-325 169 -401 200 -228 94 -585 193 -812 225 -21 3 -49 8 -63 10 -14 3 -47 7
-75 11 -27 3 -60 7 -71 9 -12 2 -48 7 -80 11 -33 3 -66 8 -74 9 -13 2 -15 49
-16 351 -1 192 -4 368 -7 392 -19 133 -147 210 -285 171z m-132 -2344 c0 -540
-1 -575 -17 -576 -10 -1 -27 -3 -38 -4 -11 -1 -63 -5 -115 -9 -157 -11 -265
-27 -416 -60 -229 -50 -530 -199 -784 -390 -87 -65 -293 -260 -366 -346 -143
-169 -194 -255 -202 -342 -18 -204 154 -364 360 -336 117 16 190 75 245 197
61 138 114 235 171 314 198 276 540 493 852 541 19 3 46 8 60 11 14 3 61 8
105 12 89 7 88 7 132 5 l31 -2 2 -332 c1 -183 3 -490 5 -683 2 -192 6 -678 10
-1080 3 -401 8 -882 10 -1067 2 -248 0 -338 -8 -340 -20 -6 -218 -2 -282 6
-57 7 -120 18 -175 31 -14 3 -35 8 -47 11 -56 11 -226 75 -303 113 -83 42
-241 142 -310 198 -73 59 -239 234 -310 328 -83 109 -122 136 -204 143 -117 9
-210 -80 -209 -199 0 -45 9 -72 48 -150 81 -161 150 -268 244 -379 26 -30 58
-68 72 -84 66 -79 358 -306 469 -364 116 -62 204 -104 255 -122 33 -12 69 -25
80 -30 47 -20 203 -61 285 -74 90 -15 178 -24 295 -32 55 -3 102 -7 104 -10 3
-3 5 -1199 2 -1266 -1 -18 -40 -19 -201 -2 -77 7 -274 37 -325 48 -11 3 -51
11 -90 20 -247 53 -574 174 -805 298 -373 200 -663 426 -981 765 -59 63 -200
241 -272 344 -150 215 -315 525 -393 736 -13 38 -29 77 -34 88 -30 66 -127
415 -145 525 -3 19 -8 42 -10 50 -2 8 -7 40 -10 70 -3 30 -8 62 -10 70 -6 24
-17 165 -20 265 l-2 92 276 2 c152 1 407 4 566 6 160 2 567 7 905 10 338 4
737 9 885 10 149 2 320 4 381 4 l112 1 1 179 0 179 -152 2 c-84 1 -285 3 -447
5 -162 2 -596 6 -965 10 -368 4 -760 9 -870 10 -110 2 -307 3 -439 4 l-238 1
7 68 c4 37 8 85 10 107 5 48 41 237 61 320 20 80 83 282 99 320 8 17 30 72 50
123 179 449 549 958 955 1314 542 474 1183 770 1915 884 22 3 41 7 42 7 1 1
22 3 47 5 l46 2 0 -575z m592 -1065 c153 -51 305 -137 448 -253 346 -281 623
-697 695 -1043 16 -76 27 -226 19 -248 -3 -8 -184 -11 -609 -10 -333 0 -606
-2 -606 -5 -4 -18 -5 -308 -1 -318 3 -10 133 -13 604 -13 l601 0 -7 -47 c-51
-385 -275 -771 -617 -1066 -136 -117 -401 -265 -584 -325 -117 -39 -156 -47
-164 -34 -4 6 -6 48 -5 94 1 46 5 398 8 783 4 385 9 961 12 1280 3 319 7 726
9 905 2 179 3 329 4 333 2 14 102 -3 193 -33z"/>
<path d="M5197 6423 c-1 0 -31 -4 -67 -7 -36 -4 -81 -9 -100 -11 -19 -3 -57
-7 -85 -10 -141 -16 -197 -43 -255 -123 -30 -40 -65 -128 -74 -182 -15 -91
-24 -302 -17 -380 1 -6 55 -10 141 -10 l140 0 1 93 c1 144 14 188 69 228 34
26 149 44 302 48 l26 1 0 179 -1 179 -39 -1 c-22 -1 -40 -3 -41 -4z"/>
<path d="M4594 5106 c7 -69 33 -280 40 -321 23 -128 88 -209 203 -249 68 -24
100 -28 281 -32 l172 -5 0 133 0 134 -27 2 c-127 8 -248 29 -284 48 -15 7 -37
27 -48 43 -21 30 -52 155 -65 262 l-7 56 -136 0 -135 0 6 -71z"/>
<path d="M5790 6241 l0 -191 103 0 c56 0 120 -5 141 -10 40 -9 90 -40 92 -56
0 -5 4 -29 8 -54 4 -25 8 -90 9 -145 l2 -100 204 0 204 0 -7 160 c-6 159 -7
173 -21 250 -16 92 -61 182 -115 235 -36 34 -112 64 -215 86 -16 3 -114 8
-217 11 l-188 5 0 -191z"/>
<path d="M6195 5190 c-16 -3 -31 -9 -32 -15 -1 -5 -4 -53 -7 -105 -15 -239
-41 -269 -246 -286 -47 -3 -94 -7 -105 -8 -19 -1 -20 -8 -21 -154 l0 -154 40
6 c23 3 64 8 91 11 174 17 201 21 368 49 81 14 173 87 209 164 30 67 48 218
52 436 l1 59 -160 1 c-88 1 -173 -1 -190 -4z"/>
</g>
</svg>
